HIERARCHY
ROOT root
{
	OFFSET 0.000000 0.000000 0.000000
	CHANNELS 6 Xposition Yposition Zposition Zrotation Yrotation Xrotation
	JOINT lhip
	{
		OFFSET 0.058581 -0.082280 -0.017664
		CHANNELS 3 Zrotation Yrotation Xrotation
		JOINT lknee
		{
			OFFSET 0.043451 -0.386469 0.008037
			CHANNELS 3 Zrotation Yrotation Xrotation
			JOINT lankle
			{
				OFFSET -0.014790 -0.426874 -0.037428
				CHANNELS 3 Zrotation Yrotation Xrotation
				JOINT ltoe
				{
					OFFSET 0.041054 -0.060286 0.122042
					CHANNELS 3 Zrotation Yrotation Xrotation
					End Site
					{
						OFFSET 0.000000 0.000000 0.000000
					}
				}
			}
		}
	}
	JOINT rhip
	{
		OFFSET -0.060310 -0.090513 -0.013543
		CHANNELS 3 Zrotation Yrotation Xrotation
		JOINT rknee
		{
			OFFSET -0.043257 -0.383688 -0.004843
			CHANNELS 3 Zrotation Yrotation Xrotation
			JOINT rankle
			{
				OFFSET 0.019056 -0.420046 -0.034562
				CHANNELS 3 Zrotation Yrotation Xrotation
				JOINT rtoe
				{
					OFFSET -0.034840 -0.062106 0.130323
					CHANNELS 3 Zrotation Yrotation Xrotation
					End Site
					{
						OFFSET 0.000000 0.000000 0.000000
					}
				}
			}
		}
	}
	JOINT lowerback
	{
		OFFSET 0.004439 0.124404 -0.038385
		CHANNELS 3 Zrotation Yrotation Xrotation
		JOINT upperback
		{
			OFFSET 0.004488 0.137956 0.026820
			CHANNELS 3 Zrotation Yrotation Xrotation
			JOINT chest
			{
				OFFSET -0.002265 0.056032 0.002855
				CHANNELS 3 Zrotation Yrotation Xrotation
				JOINT lowerneck
				{
					OFFSET -0.013390 0.211636 -0.033468
					CHANNELS 3 Zrotation Yrotation Xrotation
					JOINT upperneck
					{
						OFFSET 0.010113 0.088937 0.050410
						CHANNELS 3 Zrotation Yrotation Xrotation
						End Site
						{
							OFFSET 0.000000 0.000000 0.000000
						}
					}
				}
				JOINT lclavicle
				{
					OFFSET 0.071702 0.114000 -0.018898
					CHANNELS 3 Zrotation Yrotation Xrotation
					JOINT lshoulder
					{
						OFFSET 0.122921 0.045205 -0.019046
						CHANNELS 3 Zrotation Yrotation Xrotation
						JOINT lelbow
						{
							OFFSET 0.255332 -0.015649 -0.022946
							CHANNELS 3 Zrotation Yrotation Xrotation
							JOINT lwrist
							{
								OFFSET 0.265709 0.012698 -0.007375
								CHANNELS 3 Zrotation Yrotation Xrotation
								End Site
								{
									OFFSET 0.000000 0.000000 0.000000
								}
							}
						}
					}
				}
				JOINT rclavicle
				{
					OFFSET -0.082954 0.112472 -0.023707
					CHANNELS 3 Zrotation Yrotation Xrotation
					JOINT rshoulder
					{
						OFFSET -0.113228 0.046853 -0.008472
						CHANNELS 3 Zrotation Yrotation Xrotation
						JOINT relbow
						{
							OFFSET -0.260127 -0.014369 -0.031269
							CHANNELS 3 Zrotation Yrotation Xrotation
							JOINT rwrist
							{
								OFFSET -0.269108 0.006794 -0.006027
								CHANNELS 3 Zrotation Yrotation Xrotation
								End Site
								{
									OFFSET 0.000000 0.000000 0.000000
								}
							}
						}
					}
				}
			}
		}
	}
}
MOTION
Frames: 11
Frame Time: 0.033333
-0.341842 0.524572 0.968932 -1.242874 0.425217 83.826193 6.727177 7.840209 7.436753 -4.567439 7.469317 -1.418369 2.554731 14.326784 -12.603797 0.000000 -0.000000 0.000000 -9.249802 -6.093501 -1.009264 -0.026696 -2.763485 15.121266 4.246175 -11.579849 -19.954529 0.000000 -0.000000 0.000000 1.334445 -0.008158 0.676407 0.495724 -2.465130 6.097683 0.837376 -2.093841 1.771748 1.739315 -0.652826 3.606976 1.868041 5.055845 -3.152117 -22.420833 -0.779378 1.420109 -37.871804 -12.536292 -0.085051 23.577930 -39.394170 -20.714904 9.927970 -4.468788 -16.136163 18.370416 2.707811 3.172031 34.209558 9.816712 4.780666 -19.654546 37.445615 -16.116802 0.276217 6.785823 -8.650027 
-0.341159 0.523404 0.969148 -1.191359 0.658033 83.643212 6.708317 7.675535 7.806895 -4.199225 7.607839 -1.698075 2.287572 14.264287 -12.617208 0.000000 -0.000000 0.000000 -8.169344 -4.800362 -1.086954 -0.450066 -1.455732 15.697022 3.312754 -10.082108 -21.279436 0.000000 -0.000000 0.000000 1.502259 -0.464702 1.239701 0.368701 -2.311756 5.453436 0.747392 -2.016256 2.239356 2.167818 -0.245910 2.508091 1.850615 4.760209 -2.884126 -22.767609 -0.534483 1.237628 -40.231230 -12.500630 0.818790 24.668150 -41.241981 -19.886987 8.958213 -4.802567 -16.150961 18.624681 2.987220 3.329588 36.079568 10.148158 5.607449 -19.697588 38.737747 -14.980639 0.885642 6.575615 -10.804688 
-0.341179 0.521651 0.969505 -0.799502 0.705475 83.637000 6.558980 7.411843 7.882314 -3.891386 7.694027 -1.675973 2.232148 13.974723 -12.656349 0.000000 -0.000000 0.000000 -7.533271 -3.722804 -1.127806 -0.820944 -0.954230 16.171615 3.207186 -9.721580 -21.427909 0.000000 -0.000000 0.000000 1.179492 -0.839069 1.157167 0.463967 -2.413250 5.722761 0.755939 -2.034279 2.163552 2.413370 -0.141394 2.034711 1.921925 4.555332 -3.240620 -23.188011 -0.461852 1.614431 -42.711459 -12.417146 2.027189 24.670363 -42.131479 -17.815719 7.632322 -4.862219 -15.688678 19.052765 3.137814 3.644507 38.299199 10.414566 6.711070 -19.291448 39.243807 -13.270873 2.209260 6.503027 -11.539999 
-0.342371 0.519531 0.969190 -0.166853 0.715266 83.780479 6.626556 7.100027 7.590150 -3.911036 7.729452 -1.260208 2.442276 13.542003 -12.953084 0.000000 -0.000000 0.000000 -7.326842 -3.712954 -1.289037 -1.270940 -1.548469 16.492581 2.884405 -9.480111 -19.365206 0.000000 -0.000000 0.000000 0.704446 -0.917549 0.991418 0.588367 -2.739835 5.960304 0.801793 -2.221281 1.955392 2.551838 -0.184875 1.369596 2.204494 4.255806 -3.256747 -23.572017 -0.778347 2.306583 -45.547083 -12.335120 3.521133 22.332437 -41.338900 -13.442458 5.872231 -5.541165 -14.995828 19.802173 3.086500 3.980488 41.191833 10.451319 8.117922 -17.997939 39.181582 -9.187080 5.523906 6.499584 -10.359377 
-0.343723 0.518649 0.968948 0.043952 0.789364 83.894504 6.913392 7.130348 7.402317 -4.072547 7.825575 -0.965964 2.556197 13.099712 -13.132827 0.000000 -0.000000 0.000000 -7.348099 -4.082726 -1.293150 -1.324452 -2.342158 16.446160 2.777317 -9.126049 -18.307202 0.000000 -0.000000 0.000000 0.561533 -0.800319 1.018499 0.643656 -2.904558 6.051999 0.820316 -2.311168 1.707574 2.629110 -0.160364 1.052634 2.339001 3.903388 -3.289821 -23.817243 -1.148577 2.770189 -47.096072 -12.164876 4.253097 20.611496 -40.063622 -9.879093 2.849088 -5.808426 -13.809653 20.295040 3.118968 4.287463 43.020982 10.278273 8.801518 -17.076502 38.714704 -6.238808 8.165130 6.531624 -9.351036 
-0.346650 0.517211 0.969318 -0.177624 1.036831 84.148724 7.330231 7.216280 7.255411 -4.025818 8.045008 -0.870758 2.624097 12.985002 -13.135899 0.000000 -0.000000 0.000000 -7.256884 -4.270100 -0.846255 -0.998674 -3.206182 15.472996 2.710460 -8.392259 -18.270240 0.000000 -0.000000 0.000000 0.645333 -0.569078 0.820836 0.734683 -3.084078 6.236902 0.939711 -2.198824 1.290263 2.435723 -0.094531 1.263168 2.481506 3.727681 -3.717314 -23.062080 -2.024706 3.656762 -50.919150 -11.105763 5.892965 20.322152 -36.363072 -5.249232 1.279836 -4.653268 -14.376881 19.748255 3.801880 4.901619 47.102532 9.753646 9.674126 -16.808534 35.232781 -2.512572 9.276808 5.803093 -10.991132 
-0.348775 0.515859 0.969253 -0.027986 1.118033 84.219244 7.555988 7.181789 7.148136 -4.004687 8.283656 -0.636681 2.549769 12.660071 -13.320267 0.000000 -0.000000 0.000000 -7.118631 -4.241715 -0.582633 -0.964891 -3.687250 15.105491 2.766859 -7.891673 -17.688134 0.000000 -0.000000 0.000000 0.464225 -0.471654 0.797496 0.778606 -3.253859 6.432840 0.996491 -2.258595 1.046182 2.643463 0.160752 0.811599 2.489013 3.376152 -3.824165 -23.539900 -2.602084 3.905384 -52.628782 -11.086568 6.446361 18.716745 -33.267025 -2.842172 -1.691480 -4.699031 -12.487290 20.389001 4.167501 5.141217 49.305216 10.078809 10.269526 -15.715277 32.486227 -0.682089 11.470194 5.299088 -10.123330 
-0.350947 0.514359 0.969446 0.007827 1.238820 84.325578 7.798471 7.161076 7.029425 -3.952329 8.528233 -0.389190 2.495054 12.410727 -13.476187 0.000000 -0.000000 0.000000 -6.971626 -4.286282 -0.336091 -0.898990 -4.181554 14.703376 2.719723 -7.408180 -17.220633 0.000000 -0.000000 0.000000 0.373331 -0.393646 0.770194 0.819232 -3.398148 6.583008 1.047431 -2.257492 0.826697 2.771183 0.377117 0.455956 2.558981 3.090469 -3.987518 -23.788746 -3.048288 4.219691 -54.564297 -11.050271 6.917483 17.460604 -30.188124 -0.671857 -4.422612 -4.455064 -11.340294 20.825484 4.501352 5.421653 51.730763 10.382395 10.757276 -14.993586 29.606443 0.860688 13.462492 4.694800 -9.599538 
-0.353006 0.512823 0.969733 -0.063281 1.361661 84.422262 8.033291 7.173319 6.947586 -3.877787 8.794124 -0.166334 2.428352 12.210043 -13.603740 0.000000 -0.000000 0.000000 -6.843305 -4.347093 -0.077286 -0.798378 -4.620299 14.264590 2.658535 -6.925606 -16.885223 0.000000 -0.000000 0.000000 0.340952 -0.322928 0.768286 0.853141 -3.503656 6.695586 1.092222 -2.224708 0.651455 2.878541 0.576912 0.133914 2.630471 2.854836 -4.168178 -24.009909 -3.316348 4.473923 -56.459638 -11.004229 7.297537 16.484394 -27.266036 0.977476 -6.531485 -4.096802 -10.546253 21.218764 4.746966 5.660078 54.054857 10.701066 11.130979 -14.494245 26.727791 1.887353 14.915748 4.116657 -9.219509 
-0.355264 0.510817 0.970119 -0.268249 1.502857 84.516489 8.293014 7.225491 6.938804 -3.766236 9.126094 0.015385 2.334164 12.038433 -13.698007 0.000000 -0.000000 0.000000 -6.702875 -4.386994 0.268475 -0.636245 -5.002614 13.689243 2.589923 -6.367340 -16.639747 0.000000 -0.000000 0.000000 0.358011 -0.263375 0.776454 0.888167 -3.581367 6.801168 1.140477 -2.148968 0.515957 2.980954 0.771499 -0.221021 2.734325 2.651468 -4.400726 -24.290389 -3.376990 4.736461 -58.671808 -10.844085 7.693531 15.612993 -24.299908 2.314286 -7.803955 -3.580037 -10.066797 21.684899 4.897414 5.922555 56.636976 11.031077 11.468393 -14.147116 23.615974 2.480447 15.637325 3.554288 -8.830250 
-0.356746 0.509158 0.970367 -0.495669 1.598846 84.581452 8.467877 7.297600 7.002587 -3.683438 9.372083 0.062933 2.277731 11.955082 -13.716430 0.000000 -0.000000 0.000000 -6.612068 -4.411213 0.522862 -0.502920 -5.166476 13.255290 2.536889 -5.977661 -16.515602 0.000000 -0.000000 0.000000 0.401044 -0.233019 0.764091 0.916855 -3.605975 6.867165 1.171944 -2.075873 0.466641 3.033909 0.862047 -0.445029 2.833943 2.566971 -4.576695 -24.530542 -3.222302 4.943195 -60.255025 -10.548669 8.005098 15.125419 -22.795321 3.017745 -7.613410 -3.177648 -9.997630 22.032417 4.873110 6.124332 58.363820 11.123264 11.689601 -14.047109 21.895292 2.616583 15.307386 3.278359 -8.596218 
